<svg width="606" height="223" viewBox="0 0 606 223" fill="none" xmlns="http://www.w3.org/2000/svg">
<path d="M166.316 96.1039C166.014 95.2547 165.505 94.4871 164.833 93.8647C164.585 93.6433 164.317 93.444 164.031 93.2692C161.755 91.8099 158.355 91.4829 156.192 93.2692C155.974 93.4509 155.773 93.6501 155.59 93.8647C154.945 94.6279 154.283 95.3743 153.602 96.1039C152.486 97.3283 151.344 98.5108 150.149 99.6598C149.809 99.9785 149.469 100.306 149.121 100.624C148.92 100.817 148.719 101.002 148.519 101.186C147.752 101.891 146.967 102.57 146.173 103.241C145.755 103.602 145.336 103.954 144.909 104.298C144.272 104.809 143.636 105.321 142.991 105.816C142.93 105.858 142.869 105.899 142.808 105.95C142.79 105.958 142.781 105.975 142.764 105.983C142.755 105.983 142.746 105.983 142.738 106C142.714 106.009 142.693 106.024 142.677 106.042C142.485 106.168 142.354 106.252 142.258 106.327C142.293 106.31 142.328 106.285 142.363 106.268C142.206 106.386 142.04 106.503 141.883 106.621C140.357 107.703 138.797 108.743 137.201 109.715C133.253 112.146 129.106 114.263 124.802 116.047C124.514 116.156 124.217 116.274 123.921 116.383C112.65 120.824 100.425 122.557 88.3013 121.431C87.0631 121.339 85.8249 121.213 84.5868 121.054C83.1568 120.853 81.7355 120.61 80.3229 120.333C74.9452 119.301 69.6833 117.773 64.6102 115.771C58.2642 112.975 52.2285 109.57 46.5955 105.606C45.7235 105.01 44.8428 104.415 43.9622 103.836C44.9649 101.471 45.9502 99.1063 46.9094 96.7245C47.389 95.5755 47.8511 94.4266 48.3045 93.2692C51.8709 84.3542 55.2192 75.3554 58.428 66.323C61.6717 57.1732 64.7322 47.9703 67.6097 38.7143C67.9062 37.775 68.1939 36.8357 68.473 35.8964C69.9815 31.007 71.4289 26.1064 72.8153 21.1946C72.9461 20.7167 73.0856 20.247 73.2077 19.7689C73.6088 18.36 74.0012 16.951 74.3849 15.5421C75.2568 12.3635 73.2862 8.5644 69.8158 7.80122C68.1449 7.38917 66.3729 7.61701 64.8732 8.43677C63.3736 9.25653 62.2633 10.6042 61.7763 12.1958C61.4014 13.5544 61.0264 14.9047 60.6428 16.2633C58.8029 22.83 56.8672 29.3744 54.8355 35.8964C54.539 36.8357 54.2426 37.775 53.9461 38.7143C49.4642 52.9212 44.5435 66.9856 39.1838 80.9073C38.5386 82.5931 37.8846 84.2732 37.2219 85.9477C36.8993 86.7696 36.5767 87.5915 36.2453 88.4134C35.6088 90.032 34.9548 91.6506 34.3009 93.2692C33.9259 94.2169 33.5422 95.1646 33.1586 96.1039C32.9057 96.6993 32.6616 97.2948 32.4174 97.8819C29.9313 97.0233 27.3555 96.4271 24.7355 96.1039L24.3169 96.0536C22.2856 95.8185 20.2313 95.8354 18.2045 96.1039C15.171 96.4443 12.2523 97.4215 9.65467 98.9664C7.05707 100.511 4.844 102.586 3.17189 105.044C-0.987358 111.342 -0.935044 120.35 4.89837 125.7C10.9062 131.21 20.0007 131.168 27.0723 127.721C30.8198 125.771 33.9796 122.923 36.2453 119.452C37.1133 118.194 37.9109 116.892 38.6345 115.552C38.8176 115.67 39.0007 115.787 39.1838 115.913C39.8814 116.383 40.579 116.861 41.2678 117.33C45.2814 120.127 49.5111 122.625 53.92 124.803C63.3999 129.336 73.6044 132.304 84.1072 133.584C84.3426 133.609 84.5693 133.642 84.8048 133.668C85.9645 133.81 87.1329 133.919 88.3013 134.011C105.062 135.226 121.844 131.927 136.765 124.484C138.029 123.855 139.282 123.195 140.523 122.505C142.45 121.431 144.333 120.291 146.173 119.083C147.176 118.429 148.153 117.767 149.121 117.07C153.35 114.074 157.292 110.72 160.901 107.048C162.27 105.665 163.58 104.236 164.833 102.763C166.018 101.558 166.701 99.9757 166.752 98.3179C166.745 97.5608 166.597 96.811 166.316 96.1039V96.1039ZM21.9278 116.081C22.1109 115.955 22.294 115.821 22.4684 115.687C22.4161 115.812 22.1632 115.955 21.9278 116.081H21.9278ZM24.7267 113.372C24.5262 113.59 24.3431 113.808 24.1425 114.026C23.5324 114.683 22.8769 115.299 22.1806 115.871C22.0847 115.955 21.9801 116.039 21.8754 116.114C21.8743 116.114 21.8731 116.115 21.8721 116.115C21.871 116.115 21.87 116.116 21.8692 116.117C21.8684 116.118 21.8678 116.118 21.8673 116.12C21.8669 116.121 21.8667 116.122 21.8667 116.123C21.7408 116.177 21.6184 116.239 21.5004 116.307C21.1255 116.525 20.7419 116.727 20.3495 116.911C19.5812 117.183 18.7909 117.394 17.9865 117.54C17.3684 117.583 16.7481 117.589 16.1292 117.557H16.1118C15.6847 117.466 15.2627 117.354 14.8474 117.221C14.6382 117.121 14.4376 117.003 14.2371 116.886C14.1586 116.819 14.0888 116.752 14.0452 116.71C13.96 116.635 13.8813 116.554 13.8099 116.467C13.8099 116.466 13.8097 116.464 13.8092 116.463C13.8088 116.462 13.8082 116.461 13.8074 116.461C13.8065 116.46 13.8056 116.459 13.8045 116.459C13.8034 116.458 13.8023 116.458 13.8011 116.458C13.7052 116.29 13.6005 116.123 13.5047 115.955C13.4997 115.951 13.4966 115.945 13.4959 115.938C13.4262 115.729 13.3652 115.511 13.3128 115.292C13.2939 114.91 13.2968 114.526 13.3215 114.144C13.4386 113.608 13.5959 113.081 13.7924 112.567C13.969 112.202 14.1699 111.849 14.3941 111.51C14.4115 111.477 14.4987 111.342 14.5946 111.191C14.6033 111.183 14.6033 111.183 14.6033 111.175C14.7341 111.032 14.8649 110.881 15.0044 110.747C15.2399 110.495 15.4927 110.277 15.7456 110.051C16.2374 109.741 16.7468 109.458 17.2715 109.204C18.104 108.919 18.9582 108.698 19.8264 108.541C21.1067 108.443 22.3935 108.455 23.6717 108.575C24.8824 108.777 26.077 109.06 27.2467 109.422C26.5378 110.745 25.7306 112.018 24.8314 113.229C24.7965 113.28 24.7617 113.33 24.7267 113.372V113.372ZM15.0305 110.613C14.9537 110.731 14.863 110.841 14.7602 110.94C14.8294 110.816 14.921 110.705 15.0305 110.613V110.613Z" fill="white"/>
<path d="M140.104 10.4511C140.026 13.0845 139.948 15.7179 139.869 18.3513C139.703 24.1968 139.532 30.045 139.355 35.8961C139.171 42.4796 138.98 49.0603 138.779 55.6382C138.683 59.0348 138.584 62.4314 138.483 65.8279C138.212 74.9777 137.945 84.1247 137.68 93.2689C137.654 94.2166 137.619 95.1559 137.593 96.1036C137.462 100.641 137.332 105.178 137.201 109.715C137.053 114.638 136.907 119.561 136.765 124.484C136.66 128.174 136.553 131.867 136.442 135.563C135.657 162.341 134.873 189.12 134.088 215.898C134.055 217.556 133.355 219.138 132.136 220.31C130.916 221.483 129.272 222.156 127.548 222.188C125.818 222.175 124.163 221.508 122.939 220.331C121.716 219.154 121.022 217.562 121.009 215.898C121.445 200.836 121.886 185.773 122.334 170.711C122.726 157.091 123.124 143.471 123.528 129.851C123.659 125.365 123.79 120.875 123.921 116.382C124.121 109.623 124.319 102.863 124.514 96.1036C124.54 95.1559 124.575 94.2166 124.601 93.2689C124.618 92.4387 124.645 91.6168 124.671 90.7865C125.054 77.6615 125.438 64.5336 125.822 51.403C125.979 46.2368 126.13 41.0679 126.275 35.8961C126.45 30.0003 126.624 24.1073 126.798 18.2171C126.877 15.6256 126.947 13.0426 127.025 10.4511C127.058 8.79287 127.758 7.21146 128.977 6.0387C130.196 4.86595 131.841 4.19301 133.565 4.16113C135.295 4.17454 136.95 4.84155 138.174 6.01825C139.397 7.19496 140.091 8.78704 140.104 10.4511V10.4511Z" fill="white"/>
<path d="M498.853 12.1968C491.996 37.1718 483.8 61.789 474.298 85.9497C471.676 92.6141 468.994 99.2652 466.126 105.836L466.786 104.333C465.506 107.463 463.871 110.448 461.912 113.233C461.779 113.413 461.643 113.591 461.505 113.767C462.182 112.934 462.311 112.769 461.891 113.273C461.669 113.525 461.451 113.778 461.222 114.024C460.611 114.681 459.956 115.298 459.261 115.872C459.085 116.016 458.908 116.157 458.727 116.295L459.545 115.683C459.45 115.898 458.784 116.184 458.576 116.306C457.905 116.696 457.204 117.038 456.479 117.328L458.042 116.694C456.855 117.154 455.617 117.481 454.352 117.668L456.091 117.443C454.848 117.608 453.589 117.621 452.343 117.481L454.082 117.706C453.062 117.571 452.065 117.313 451.113 116.937L452.675 117.571C452.167 117.358 451.678 117.107 451.211 116.82C450.974 116.671 450.247 116.141 451.198 116.84C452.186 117.566 451.325 116.903 451.122 116.709C450.952 116.549 450.799 116.374 450.634 116.21C449.864 115.452 451.502 117.516 450.98 116.629C450.7 116.184 450.445 115.726 450.214 115.256L450.873 116.759C450.573 116.043 450.36 115.297 450.238 114.535L450.472 116.207C450.347 115.259 450.346 114.3 450.469 113.351L450.236 115.024C450.396 113.965 450.687 112.929 451.103 111.937L450.444 113.44C450.734 112.773 451.077 112.128 451.471 111.512C451.652 111.194 451.865 110.893 452.106 110.614C452.149 110.627 451 111.882 451.61 111.248C451.769 111.083 451.918 110.908 452.08 110.744C452.338 110.48 452.615 110.24 452.887 109.99C453.798 109.156 451.612 110.801 452.663 110.141C453.425 109.659 454.227 109.238 455.06 108.883L453.498 109.517C454.894 108.966 456.358 108.588 457.854 108.394L456.115 108.618C457.988 108.411 459.881 108.433 461.749 108.683L460.01 108.458C462.375 108.803 464.686 109.428 466.891 110.32L465.329 109.686C470.029 111.626 474.191 114.507 478.346 117.332C482.359 120.127 486.587 122.624 490.995 124.802C500.475 129.336 510.68 132.305 521.184 133.586C536.247 135.361 551.533 133.469 565.639 128.083C579.744 122.698 592.218 113.992 601.915 102.763C603.098 101.556 603.779 99.9739 603.83 98.3157C603.818 96.6499 603.131 95.0544 601.915 93.8681C599.515 91.7497 594.983 91.1517 592.666 93.8681C590.47 96.4466 588.11 98.891 585.598 101.187C584.425 102.257 583.221 103.294 581.986 104.298C581.28 104.872 580.565 105.434 579.84 105.985C579.497 106.246 578.428 106.94 580.069 105.819C579.693 106.076 579.332 106.357 578.961 106.62C573.47 110.514 567.519 113.769 561.233 116.319L562.795 115.685C556.049 118.407 548.964 120.274 541.718 121.239L543.457 121.014C536.003 121.957 528.452 121.947 521.001 120.982L522.739 121.207C515.29 120.223 508.004 118.315 501.065 115.529L502.627 116.163C495.931 113.313 489.576 109.773 483.674 105.604C480.602 103.416 477.363 101.455 473.984 99.7378C470.047 97.804 465.784 96.5578 461.395 96.0574C453.164 95.1258 444.778 98.2091 440.253 105.048C436.089 111.342 436.143 120.348 441.974 125.7C447.98 131.212 457.075 131.166 464.153 127.718C470.969 124.397 475.063 117.498 477.943 110.993C484.422 96.3544 490.159 81.3772 495.504 66.3237C500.792 51.4307 505.587 36.387 509.89 21.1926C510.423 19.3107 510.948 17.4269 511.465 15.5411C512.338 12.3637 510.366 8.56343 506.898 7.80369C505.226 7.38986 503.453 7.61669 501.952 8.43632C500.451 9.25595 499.34 10.6043 498.853 12.1968L498.853 12.1968Z" fill="white"/>
<path d="M564.104 10.4511L561.75 90.7891L559.409 170.709L558.085 215.899C558.099 217.563 558.793 219.154 560.016 220.331C561.24 221.507 562.895 222.175 564.624 222.189C566.348 222.157 567.993 221.484 569.212 220.311C570.431 219.138 571.131 217.557 571.164 215.899L573.518 135.561L575.86 55.6412L577.184 10.4511C577.169 8.78728 576.475 7.19561 575.252 6.01907C574.029 4.84253 572.374 4.17529 570.644 4.16113C568.92 4.19318 567.276 4.86616 566.057 6.03888C564.837 7.2116 564.138 8.79293 564.104 10.4511V10.4511Z" fill="white"/>
<path opacity="0.2" d="M337.745 193.468H339.776V104.535H387.148V102.587H339.776V65.0615H376.359C375.823 64.4055 375.271 63.7577 374.704 63.1184H339.776V38.3335C339.104 38.0581 338.427 37.7926 337.745 37.5422V63.1184H297.938V31.3623C297.256 31.3924 296.585 31.4374 295.908 31.4925V63.1184H264.151V39.4253C263.469 39.7157 262.797 40.0213 262.131 40.3418V63.1184H235.435V65.0615H262.131V102.587H235.435V104.535H262.131V193.468H264.151V104.535C268.321 104.534 272.451 105.324 276.305 106.858C280.158 108.393 283.659 110.643 286.608 113.479C289.557 116.316 291.896 119.683 293.492 123.39C295.088 127.096 295.909 131.068 295.908 135.079V193.468H297.938V104.535H337.745V193.468ZM264.151 102.587V65.0615H295.908V102.587H264.151ZM297.938 102.587V65.0615H298.735C303.858 65.0618 308.931 66.0327 313.664 67.9187C318.398 69.8047 322.698 72.5689 326.32 76.0535C329.943 79.5381 332.816 83.6747 334.776 88.2274C336.737 92.78 337.746 97.6593 337.745 102.587H297.938Z" fill="white"/>
<path d="M325.344 166.803C322.787 177.772 316.663 187.672 307.861 195.066C307.216 195.603 306.57 196.123 305.899 196.634C304.269 196.777 302.65 196.922 301.042 197.07C299.708 197.188 298.391 197.314 297.084 197.431L296.848 197.456L296.682 196.081L296.02 190.512C293.449 186.475 291.856 181.934 291.357 177.224C290.859 172.515 291.469 167.758 293.142 163.306C295.444 157.335 299.612 152.059 303.71 146.826C309.369 139.597 314.872 132.452 315.072 123.637C317.857 127.065 320.172 130.822 321.961 134.817C320.273 135.581 318.756 136.655 317.496 137.978C317.139 138.356 316.781 138.884 317.025 139.337C317.235 139.723 317.758 139.815 318.211 139.865C319.301 139.974 320.4 140.083 321.49 140.192C322.362 140.285 323.234 140.368 324.106 140.461C325.16 143.791 325.876 147.212 326.242 150.676C326.829 156.063 326.526 161.507 325.344 166.803V166.803Z" fill="white"/>
<path d="M354.293 144.821C349.148 148.419 346.14 153.594 343.803 159.297C341.408 160.034 339.253 161.358 337.551 163.138C337.194 163.515 336.836 164.044 337.08 164.496C337.29 164.882 337.813 164.975 338.266 165.025C339.356 165.134 340.455 165.243 341.545 165.352C339.208 172.095 337.063 179.072 332.93 184.767C330.181 188.527 326.598 191.652 322.44 193.917C321.306 194.538 320.136 195.095 318.935 195.586C314.505 195.913 310.16 196.262 305.899 196.634C304.268 196.777 302.649 196.922 301.042 197.07C299.708 197.187 298.391 197.313 297.083 197.431C297.075 196.969 297.075 196.508 297.083 196.047C297.359 183.759 302.059 171.945 310.381 162.618C310.773 162.182 311.174 161.754 311.584 161.326C315.8 156.995 320.758 153.392 326.242 150.675C334.882 146.354 344.567 144.333 354.293 144.821V144.821Z" fill="#09F3FD"/>
<path d="M302.551 192.768L301.548 195.62L301.042 197.07C299.708 197.188 298.391 197.314 297.083 197.431L296.848 197.456C295.4 197.599 293.962 197.741 292.523 197.884C292.148 197.465 291.773 197.037 291.407 196.601C282.305 186 277.937 172.366 279.255 158.677C280.574 144.987 287.472 132.357 298.444 123.545C297.293 129.34 298.635 134.892 300.841 140.402C300.606 140.494 300.379 140.587 300.161 140.687C298.473 141.451 296.957 142.525 295.697 143.849C295.339 144.226 294.982 144.755 295.226 145.208C295.435 145.593 295.959 145.686 296.412 145.736C297.502 145.845 298.601 145.954 299.69 146.063C300.562 146.155 301.434 146.239 302.306 146.331C302.716 146.373 303.126 146.415 303.536 146.457C303.597 146.583 303.649 146.7 303.71 146.826C306.195 152.009 308.872 157.217 310.381 162.618C310.759 163.973 311.056 165.348 311.27 166.736C311.942 171.426 311.506 176.202 309.997 180.708C308.487 185.215 305.942 189.337 302.551 192.768V192.768Z" fill="#09F3FD"/>
<path d="M390.321 71.1289C382.814 57.046 371.185 45.1967 357.507 36.4892C343.785 27.7936 328.04 22.4981 311.674 21.0747C309.529 20.8872 307.379 20.7773 305.223 20.7452C302.675 20.7086 264.357 31.339 251.521 40.0195C238.692 48.5941 228.139 59.9495 220.712 73.1692C213.299 86.4614 209.653 101.396 210.139 116.472C210.775 131.639 215.17 146.441 222.959 159.643C230.642 172.802 241.551 183.957 254.737 192.138C268.111 200.345 281.546 222.108 297.336 222.876C313.246 223.65 331.39 203.121 345.9 196.888C360.411 190.603 372.955 180.77 382.283 168.37C391.348 156.217 397.212 142.13 399.373 127.319C401.617 112.153 400.571 96.5126 395.186 82.0176C393.805 78.293 392.18 74.6562 390.321 71.1289C388.769 68.1893 384.22 67.1068 381.373 68.8724C379.906 69.7412 378.844 71.1204 378.407 72.7231C377.97 74.3259 378.192 76.0289 379.027 77.4783C379.938 79.2046 380.786 80.9596 381.569 82.743L380.91 81.2405C383.874 88.0966 385.89 95.2975 386.906 102.658L386.672 100.986C387.752 108.972 387.733 117.06 386.614 125.041L386.848 123.369C385.718 131.349 383.503 139.152 380.261 146.578L380.92 145.076C379.252 148.865 377.308 152.535 375.103 156.061C373.985 157.842 372.799 159.581 371.545 161.279C370.994 162.024 370.426 162.756 369.854 163.485C369.107 164.438 370.871 162.241 370.1 163.176C369.969 163.335 369.838 163.494 369.706 163.653C369.31 164.129 368.908 164.601 368.501 165.068C365.782 168.188 362.816 171.1 359.628 173.777C358.834 174.443 358.026 175.095 357.206 175.732C356.797 176.049 356.393 176.38 355.967 176.675C355.983 176.664 357.344 175.669 356.538 176.246C356.285 176.428 356.034 176.612 355.78 176.793C354.088 177.998 352.352 179.142 350.571 180.225C346.469 182.71 342.167 184.873 337.704 186.694L339.266 186.06C331.569 189.176 323.478 191.306 315.203 192.393L316.942 192.168C308.671 193.243 300.288 193.257 292.013 192.21L293.752 192.435C286.231 191.464 278.875 189.551 271.87 186.745L273.432 187.379C269.374 185.732 265.462 183.771 261.734 181.516C259.888 180.398 258.091 179.211 256.342 177.954C256.092 177.775 255.845 177.593 255.596 177.413C254.798 176.833 256.17 177.84 256.181 177.847C255.717 177.527 255.27 177.184 254.842 176.82C253.997 176.158 253.166 175.481 252.347 174.789C249.072 172.015 246.014 169.013 243.198 165.807C242.492 165.006 241.802 164.192 241.127 163.366C240.835 163.009 240.302 162.284 241.48 163.81C241.325 163.609 241.164 163.412 241.008 163.213C240.632 162.733 240.261 162.25 239.895 161.763C238.615 160.059 237.398 158.313 236.244 156.525C233.636 152.478 231.361 148.242 229.438 143.855L230.097 145.357C226.95 138.156 224.798 130.589 223.696 122.85L223.93 124.522C222.936 117.388 222.922 110.16 223.888 103.022L223.654 104.694C224.645 97.7825 226.578 91.0265 229.404 84.6007L228.745 86.1033C230.523 82.0806 232.621 78.1955 235.019 74.4825C236.22 72.6245 237.492 70.8117 238.836 69.0441C239.142 68.6425 239.45 68.2433 239.763 67.8466C240.045 67.4877 240.822 66.5942 239.496 68.1724C239.626 68.0176 239.751 67.8585 239.88 67.7024C240.617 66.8036 241.373 65.9188 242.146 65.0481C245.074 61.7515 248.246 58.6626 251.636 55.8053C252.493 55.0831 253.363 54.3761 254.247 53.6843C254.649 53.37 255.053 53.0589 255.46 52.751C255.623 52.6279 255.788 52.5072 255.95 52.3832C254.208 53.7162 255.466 52.746 255.861 52.4611C257.683 51.1481 259.554 49.9009 261.473 48.7195C265.739 46.0954 270.227 43.8208 274.889 41.9197L273.327 42.5538C280.093 39.8211 310.072 33.3711 315.524 34.0752L313.786 33.8505C321.8 34.9265 329.633 37.008 337.085 40.0418L335.522 39.4077C339.299 40.9499 342.968 42.7229 346.509 44.7158C348.278 45.7133 350.013 46.7651 351.713 47.8713C352.517 48.3949 353.313 48.9302 354.1 49.4773C354.494 49.7508 354.885 50.0272 355.274 50.3066C355.49 50.4617 355.705 50.619 355.92 50.7746C356.827 51.4279 354.672 49.8285 355.622 50.551C358.801 52.9534 361.821 55.5452 364.663 58.3113C366.058 59.6784 367.406 61.0888 368.706 62.5425C369.372 63.2885 370.025 64.0453 370.664 64.8132C370.982 65.1948 372.064 66.5753 370.738 64.8842C371.062 65.2975 371.39 65.708 371.71 66.1244C374.465 69.7117 376.912 73.5089 379.027 77.4783C380.591 80.4117 385.119 81.5054 387.975 79.7348C389.442 78.8665 390.505 77.4873 390.942 75.8843C391.379 74.2814 391.156 72.5781 390.321 71.1289Z" fill="white"/>
<path d="M314.12 173.777C313.445 173.807 312.777 173.637 312.206 173.289C311.635 172.941 311.189 172.433 310.928 171.833C310.667 171.234 310.604 170.571 310.748 169.936C310.892 169.301 311.235 168.724 311.731 168.283C311.814 167.965 311.874 167.737 311.957 167.419C311.927 167.35 311.897 167.281 311.867 167.212C308.833 160.253 289.471 179.652 288.634 186.192C288.265 189.083 288.421 192.014 289.094 194.854C282.822 181.695 279.565 167.394 279.544 152.918C279.543 149.286 279.753 145.656 280.173 142.046C280.52 139.087 281.001 136.149 281.617 133.232C284.979 117.403 292.196 102.568 302.677 89.9429C308.67 90.2646 313.923 89.3864 314.43 78.2139C314.52 76.2265 316.053 74.5057 316.391 72.5479C315.819 72.6201 315.237 72.6652 314.665 72.7013C314.487 72.7103 314.299 72.7193 314.121 72.7284L314.054 72.7312C313.425 72.7584 312.801 72.6101 312.258 72.3043C311.714 71.9985 311.275 71.5481 310.991 71.0074C310.708 70.4668 310.593 69.8589 310.661 69.2569C310.728 68.655 310.975 68.0846 311.372 67.6145C311.619 67.322 311.866 67.0298 312.113 66.7376C312.489 66.2865 312.873 65.8443 313.248 65.3933C313.292 65.3504 313.332 65.3052 313.37 65.2579C313.802 64.7436 314.233 64.2384 314.665 63.7241C313.877 62.5483 312.818 61.5634 311.569 60.8461C307.245 58.4101 301.279 60.0972 298.155 63.8595C295.022 67.6217 294.431 72.8998 295.519 77.6004C296.589 81.6001 298.359 85.3956 300.754 88.824C300.519 89.1128 300.275 89.3925 300.041 89.6812C295.754 94.9831 292.017 100.676 288.885 106.679C289.771 100.021 278.935 75.9776 274.744 70.8847C269.71 64.7675 259.388 67.4372 258.501 75.1918C258.492 75.2669 258.484 75.3419 258.476 75.417C259.098 75.7547 259.708 76.1133 260.304 76.4925C261.053 76.9738 261.633 77.6614 261.969 78.4654C262.304 79.2693 262.38 80.152 262.185 80.9978C261.99 81.8437 261.534 82.6132 260.877 83.2055C260.22 83.7979 259.391 84.1855 258.501 84.3175L258.41 84.331C250.078 95.7734 276.789 125.555 283.475 118.868C280.328 127.446 278.354 136.381 277.603 145.448C277.177 150.797 277.202 156.171 277.678 161.516L277.649 161.327C276.164 149.684 250.679 132.374 243.236 133.816C238.949 134.647 234.727 134.458 235.378 138.617C235.388 138.684 235.398 138.75 235.409 138.816C236.564 139.269 237.689 139.79 238.777 140.377C239.399 140.715 240.008 141.074 240.605 141.453C241.354 141.934 241.934 142.622 242.27 143.426C242.605 144.23 242.681 145.112 242.486 145.958C242.291 146.804 241.835 147.573 241.178 148.166C240.52 148.758 239.692 149.146 238.802 149.278L238.711 149.291C238.645 149.3 238.589 149.309 238.523 149.318C234.731 161.87 262.858 182.127 279.957 175.681H279.966C281.661 182.764 284.116 189.658 287.293 196.252H313.464C313.558 195.972 313.642 195.684 313.727 195.404C311.304 195.55 308.872 195.411 306.485 194.989C308.427 192.697 310.368 190.388 312.31 188.096C312.354 188.053 312.394 188.008 312.432 187.961C313.417 186.788 314.412 185.624 315.396 184.451L315.397 184.45C315.449 180.854 315.021 177.268 314.121 173.778L314.12 173.777ZM284.15 117.073L284.164 117.055L284.15 117.091V117.073ZM278.353 167.336L278.128 166.849C278.137 166.497 278.137 166.145 278.128 165.784C278.128 165.685 278.109 165.585 278.109 165.486C278.193 166.109 278.269 166.731 278.362 167.354L278.353 167.336Z" fill="white"/>
<path d="M20.0532 121.398C25.3505 121.398 29.6448 117.268 29.6448 112.173C29.6448 107.078 25.3505 102.947 20.0532 102.947C14.756 102.947 10.4617 107.078 10.4617 112.173C10.4617 117.268 14.756 121.398 20.0532 121.398Z" fill="white"/>
<path d="M135.152 222.038C140.449 222.038 144.743 217.907 144.743 212.812C144.743 207.717 140.449 203.587 135.152 203.587C129.855 203.587 125.56 207.717 125.56 212.812C125.56 217.907 129.855 222.038 135.152 222.038Z" fill="white"/>
<path d="M572.004 222.038C577.301 222.038 581.595 217.907 581.595 212.812C581.595 207.717 577.301 203.587 572.004 203.587C566.706 203.587 562.412 207.717 562.412 212.812C562.412 217.907 566.706 222.038 572.004 222.038Z" fill="white"/>
<path d="M595.547 104.624C600.844 104.624 605.138 100.494 605.138 95.3991C605.138 90.3041 600.844 86.1738 595.547 86.1738C590.249 86.1738 585.955 90.3041 585.955 95.3991C585.955 100.494 590.249 104.624 595.547 104.624Z" fill="white"/>
<path d="M567.644 19.0809C572.941 19.0809 577.235 14.9506 577.235 9.85565C577.235 4.76067 572.941 0.630371 567.644 0.630371C562.347 0.630371 558.052 4.76067 558.052 9.85565C558.052 14.9506 562.347 19.0809 567.644 19.0809Z" fill="white"/>
<path d="M167.414 95.3995C167.408 97.7559 166.461 100.02 164.768 101.723C163.075 103.427 160.766 104.439 158.318 104.55C155.871 104.662 153.473 103.864 151.62 102.322C149.767 100.78 148.602 98.6119 148.365 96.2664C148.128 93.921 148.837 91.5777 150.347 89.7214C151.856 87.8651 154.049 86.6379 156.473 86.2938C158.897 85.9497 161.365 86.5149 163.368 87.8727C165.37 89.2304 166.754 91.2766 167.231 93.5879C167.354 94.1845 167.415 94.7913 167.414 95.3995V95.3995Z" fill="white"/>
<path d="M359.245 45.9183C364.543 45.9183 368.837 41.788 368.837 36.6931C368.837 31.5981 364.543 27.4678 359.245 27.4678C353.948 27.4678 349.654 31.5981 349.654 36.6931C349.654 41.788 353.948 45.9183 359.245 45.9183Z" fill="white"/>
<path d="M264.202 36.6929C264.196 39.0494 263.249 41.3135 261.556 43.0168C259.862 44.7201 257.553 45.7322 255.106 45.8435C252.659 45.9549 250.261 45.1571 248.408 43.6152C246.555 42.0733 245.39 39.9053 245.152 37.5599C244.915 35.2145 245.625 32.8711 247.134 31.0148C248.643 29.1585 250.837 27.9313 253.261 27.5872C255.684 27.2431 258.153 27.8084 260.156 29.1661C262.158 30.5239 263.541 32.5701 264.019 34.8814C264.142 35.4779 264.203 36.0847 264.202 36.6929V36.6929Z" fill="white"/>
<path d="M140.383 9.85597C140.378 12.2124 139.43 14.4766 137.737 16.1799C136.044 17.8832 133.735 18.8953 131.288 19.0066C128.84 19.118 126.442 18.3202 124.589 16.7783C122.737 15.2364 121.571 13.0684 121.334 10.723C121.097 8.37754 121.807 6.0342 123.316 4.17791C124.825 2.32161 127.019 1.09443 129.442 0.750318C131.866 0.406208 134.335 0.971507 136.337 2.32923C138.34 3.68696 139.723 5.73318 140.2 8.04446C140.323 8.641 140.385 9.2478 140.383 9.85597V9.85597Z" fill="white"/>
<path d="M459.521 124.752C464.818 124.752 469.112 120.622 469.112 115.527C469.112 110.432 464.818 106.302 459.521 106.302C454.223 106.302 449.929 110.432 449.929 115.527C449.929 120.622 454.223 124.752 459.521 124.752Z" fill="white"/>
<path d="M308.672 40.886C316.377 40.886 322.623 34.8783 322.623 27.4674C322.623 20.0565 316.377 14.0488 308.672 14.0488C300.967 14.0488 294.72 20.0565 294.72 27.4674C294.72 34.8783 300.967 40.886 308.672 40.886Z" fill="white"/>
</svg>
