<svg width="50" height="51" viewBox="0 0 50 51" fill="none" xmlns="http://www.w3.org/2000/svg">
<path d="M25.2 12.7C18.2 12.7 12.4 18.4 12.4 25.5C12.4 32.6 18.1 38.2999 25.2 38.2999C32.3 38.2999 38 32.5 38 25.5C38 18.5 32.2 12.7 25.2 12.7ZM25.2 33.7C20.7 33.7 17 30 17 25.5C17 21 20.7 17.2999 25.2 17.2999C29.7 17.2999 33.4 21 33.4 25.5C33.4 30 29.7 33.7 25.2 33.7Z" fill="white"/>
<path d="M38.5 15.3C40.1016 15.3 41.4 14.0016 41.4 12.4C41.4 10.7984 40.1016 9.5 38.5 9.5C36.8984 9.5 35.6 10.7984 35.6 12.4C35.6 14.0016 36.8984 15.3 38.5 15.3Z" fill="white"/>
<path d="M46 4.90005C43.4 2.20005 39.7 0.800049 35.5 0.800049H14.9C6.2 0.800049 0.400002 6.60005 0.400002 15.3V35.8C0.400002 40.1 1.8 43.8 4.6 46.5C7.3 49.1 10.9 50.4001 15 50.4001H35.4C39.7 50.4001 43.3 49 45.9 46.5C48.6 43.9 50 40.2001 50 35.9001V15.3C50 11.1 48.6 7.50005 46 4.90005ZM45.6 35.9001C45.6 39.0001 44.5 41.5001 42.7 43.2001C40.9 44.9001 38.4 45.8 35.4 45.8H15C12 45.8 9.5 44.9001 7.7 43.2001C5.9 41.4001 5 38.9 5 35.8V15.3C5 12.3 5.9 9.80005 7.7 8.00005C9.4 6.30005 12 5.40005 15 5.40005H35.6C38.6 5.40005 41.1 6.30005 42.9 8.10005C44.6 9.90005 45.6 12.4 45.6 15.3V35.9001Z" fill="white"/>
</svg>
